<svg width="64" height="66" viewBox="0 0 64 66" fill="none" xmlns="http://www.w3.org/2000/svg">
<path d="M64 33C64 51.2254 49.6731 66 32 66C14.3269 66 0 51.2254 0 33C0 14.7746 14.3269 0 32 0C49.6731 0 64 14.7746 64 33Z" fill="url(#paint0_linear_33_724)"/>
<path d="M44.25 49.625L32 37.0833L27.8875 41.2938C28.1208 41.7417 28.2812 42.2195 28.3688 42.7271C28.4563 43.2347 28.5 43.7424 28.5 44.25C28.5 46.2208 27.8146 47.908 26.4438 49.3115C25.0729 50.7149 23.425 51.4167 21.5 51.4167C19.575 51.4167 17.9271 50.7149 16.5563 49.3115C15.1854 47.908 14.5 46.2208 14.5 44.25C14.5 42.2792 15.1854 40.592 16.5563 39.1886C17.9271 37.7851 19.575 37.0833 21.5 37.0833C21.9958 37.0833 22.4917 37.1281 22.9875 37.2177C23.4833 37.3073 23.95 37.4715 24.3875 37.7104L28.5 33.5L24.3875 29.2896C23.95 29.5285 23.4833 29.6927 22.9875 29.7823C22.4917 29.8719 21.9958 29.9167 21.5 29.9167C19.575 29.9167 17.9271 29.2149 16.5563 27.8115C15.1854 26.408 14.5 24.7208 14.5 22.75C14.5 20.7792 15.1854 19.092 16.5563 17.6886C17.9271 16.2851 19.575 15.5833 21.5 15.5833C23.425 15.5833 25.0729 16.2851 26.4438 17.6886C27.8146 19.092 28.5 20.7792 28.5 22.75C28.5 23.2576 28.4563 23.7653 28.3688 24.2729C28.2812 24.7806 28.1208 25.2583 27.8875 25.7063L49.5 47.8333V49.625H44.25ZM37.25 31.7083L33.75 28.125L44.25 17.375H49.5V19.1667L37.25 31.7083ZM21.5 26.3333C22.4625 26.3333 23.2865 25.9825 23.9719 25.2807C24.6573 24.579 25 23.7354 25 22.75C25 21.7646 24.6573 20.921 23.9719 20.2193C23.2865 19.5175 22.4625 19.1667 21.5 19.1667C20.5375 19.1667 19.7135 19.5175 19.0281 20.2193C18.3427 20.921 18 21.7646 18 22.75C18 23.7354 18.3427 24.579 19.0281 25.2807C19.7135 25.9825 20.5375 26.3333 21.5 26.3333ZM32 34.3958C32.2333 34.3958 32.4375 34.3063 32.6125 34.1271C32.7875 33.9479 32.875 33.7389 32.875 33.5C32.875 33.2611 32.7875 33.0521 32.6125 32.8729C32.4375 32.6938 32.2333 32.6042 32 32.6042C31.7667 32.6042 31.5625 32.6938 31.3875 32.8729C31.2125 33.0521 31.125 33.2611 31.125 33.5C31.125 33.7389 31.2125 33.9479 31.3875 34.1271C31.5625 34.3063 31.7667 34.3958 32 34.3958ZM21.5 47.8333C22.4625 47.8333 23.2865 47.4825 23.9719 46.7807C24.6573 46.079 25 45.2354 25 44.25C25 43.2646 24.6573 42.421 23.9719 41.7193C23.2865 41.0175 22.4625 40.6667 21.5 40.6667C20.5375 40.6667 19.7135 41.0175 19.0281 41.7193C18.3427 42.421 18 43.2646 18 44.25C18 45.2354 18.3427 46.079 19.0281 46.7807C19.7135 47.4825 20.5375 47.8333 21.5 47.8333Z" fill="white"/>
<defs>
<linearGradient id="paint0_linear_33_724" x1="32" y1="0" x2="32" y2="66" gradientUnits="userSpaceOnUse">
<stop stop-color="#D0BCFE"/>
<stop offset="1" stop-color="#7C7198"/>
</linearGradient>
</defs>
</svg>
