<svg width="41" height="41" viewBox="0 0 41 41" fill="none" xmlns="http://www.w3.org/2000/svg">
<path d="M9.99371 29.2125C11.4458 28.1021 13.0687 27.2266 14.8625 26.586C16.6562 25.9453 18.5354 25.625 20.5 25.625C22.4645 25.625 24.3437 25.9453 26.1375 26.586C27.9312 27.2266 29.5541 28.1021 31.0062 29.2125C32.0027 28.0452 32.7786 26.7212 33.3338 25.2406C33.889 23.7601 34.1666 22.1799 34.1666 20.5C34.1666 16.7132 32.8355 13.4887 30.1734 10.8266C27.5112 8.16443 24.2868 6.83335 20.5 6.83335C16.7132 6.83335 13.4887 8.16443 10.8265 10.8266C8.16437 13.4887 6.83329 16.7132 6.83329 20.5C6.83329 22.1799 7.1109 23.7601 7.6661 25.2406C8.22131 26.7212 8.99718 28.0452 9.99371 29.2125ZM20.5 22.2084C18.8201 22.2084 17.4036 21.6318 16.2505 20.4787C15.0974 19.3255 14.5208 17.909 14.5208 16.2292C14.5208 14.5493 15.0974 13.1328 16.2505 11.9797C17.4036 10.8266 18.8201 10.25 20.5 10.25C22.1798 10.25 23.5963 10.8266 24.7494 11.9797C25.9026 13.1328 26.4791 14.5493 26.4791 16.2292C26.4791 17.909 25.9026 19.3255 24.7494 20.4787C23.5963 21.6318 22.1798 22.2084 20.5 22.2084ZM20.5 37.5834C18.1368 37.5834 15.9159 37.1349 13.8375 36.238C11.759 35.3412 9.951 34.124 8.4135 32.5865C6.876 31.049 5.65881 29.241 4.76194 27.1625C3.86506 25.084 3.41663 22.8632 3.41663 20.5C3.41663 18.1368 3.86506 15.916 4.76194 13.8375C5.65881 11.759 6.876 9.95106 8.4135 8.41356C9.951 6.87606 11.759 5.65887 13.8375 4.762C15.9159 3.86512 18.1368 3.41669 20.5 3.41669C22.8632 3.41669 25.084 3.86512 27.1625 4.762C29.2409 5.65887 31.0489 6.87606 32.5864 8.41356C34.1239 9.95106 35.3411 11.759 36.238 13.8375C37.1349 15.916 37.5833 18.1368 37.5833 20.5C37.5833 22.8632 37.1349 25.084 36.238 27.1625C35.3411 29.241 34.1239 31.049 32.5864 32.5865C31.0489 34.124 29.2409 35.3412 27.1625 36.238C25.084 37.1349 22.8632 37.5834 20.5 37.5834Z" fill="white"/>
</svg>
