<svg width="20" height="20" viewBox="0 0 20 20" fill="none" xmlns="http://www.w3.org/2000/svg">
<path d="M6.62816 15L9.94224 12.4583L13.2563 15L12.0135 10.875L15.3276 8.50001H11.2679L9.94224 4.16667L8.61661 8.50001H4.55686L7.87094 10.875L6.62816 15ZM9.94224 18.3333C8.79612 18.3333 7.71905 18.1146 6.71101 17.6771C5.70298 17.2396 4.82613 16.6458 4.08046 15.8958C3.3348 15.1458 2.74448 14.2639 2.3095 13.25C1.87453 12.2361 1.65704 11.1528 1.65704 10C1.65704 8.84723 1.87453 7.76389 2.3095 6.75001C2.74448 5.73612 3.3348 4.85417 4.08046 4.10417C4.82613 3.35417 5.70298 2.76042 6.71101 2.32292C7.71905 1.88542 8.79612 1.66667 9.94224 1.66667C11.0884 1.66667 12.1654 1.88542 13.1735 2.32292C14.1815 2.76042 15.0583 3.35417 15.804 4.10417C16.5497 4.85417 17.14 5.73612 17.575 6.75001C18.0099 7.76389 18.2274 8.84723 18.2274 10C18.2274 11.1528 18.0099 12.2361 17.575 13.25C17.14 14.2639 16.5497 15.1458 15.804 15.8958C15.0583 16.6458 14.1815 17.2396 13.1735 17.6771C12.1654 18.1146 11.0884 18.3333 9.94224 18.3333ZM9.94224 16.6667C11.7926 16.6667 13.3599 16.0208 14.6441 14.7292C15.9283 13.4375 16.5704 11.8611 16.5704 10C16.5704 8.13889 15.9283 6.56251 14.6441 5.27084C13.3599 3.97917 11.7926 3.33334 9.94224 3.33334C8.09188 3.33334 6.5246 3.97917 5.24039 5.27084C3.95619 6.56251 3.31408 8.13889 3.31408 10C3.31408 11.8611 3.95619 13.4375 5.24039 14.7292C6.5246 16.0208 8.09188 16.6667 9.94224 16.6667Z" fill="white"/>
</svg>
